<svg fill="none" height="21" viewBox="0 0 21 21" width="21" xmlns="http://www.w3.org/2000/svg"><path d="m14.9337 8.51079c0-.07143-.0357-.15179-.0892-.20536l-.4465-.44643c-.0535-.05357-.1339-.08929-.2053-.08929-.0715 0-.1518.03572-.2054.08929l-3.5089 3.5089-3.50894-3.5089c-.05357-.05357-.13393-.08929-.20536-.08929-.08035 0-.15178.03572-.20535.08929l-.44643.44643c-.05357.05357-.08929.13393-.08929.20536 0 .07142.03572.15178.08929.20535l4.16068 4.16076c.0536.0535.134.0892.2054.0892s.1518-.0357.2053-.0892l4.1608-4.16076c.0535-.05357.0892-.13393.0892-.20535z" fill="#000"/></svg>