<svg fill="none" height="21" viewBox="0 0 18 21" width="18" xmlns="http://www.w3.org/2000/svg"><path d="m16.8125 4.60899-3.4821-3.48214c-.413-.412948-1.2389-.75893-1.8304-.75893h-9.99998c-.59152 0-1.071431.479911-1.071431 1.07143v17.85715c0 .5915.479911 1.0714 1.071431 1.0714h14.99998c.5915 0 1.0714-.4799 1.0714-1.0714v-12.85715c0-.59152-.3459-1.41741-.7589-1.83036zm-4.9553-2.72321c.1897.06696.3794.16741.4576.24553l3.4933 3.49331c.0781.07812.1785.26785.2455.45759h-4.1964zm4.2857 17.05362h-14.28574v-17.14291h8.57144v4.64286c0 .59152.4799 1.07143 1.0714 1.07143h4.6429zm-11.4286-9.64291v.71431c0 .2009.15625.3571.35715.3571h7.85715c.2009 0 .3571-.1562.3571-.3571v-.71431c0-.20089-.1562-.35714-.3571-.35714h-7.85715c-.2009 0-.35715.15625-.35715.35714zm8.2143 2.50001h-7.85715c-.2009 0-.35715.1562-.35715.3571v.7143c0 .2009.15625.3572.35715.3572h7.85715c.2009 0 .3571-.1563.3571-.3572v-.7143c0-.2009-.1562-.3571-.3571-.3571zm0 2.8571h-7.85715c-.2009 0-.35715.1563-.35715.3572v.7143c0 .2009.15625.3571.35715.3571h7.85715c.2009 0 .3571-.1562.3571-.3571v-.7143c0-.2009-.1562-.3572-.3571-.3572z" fill="#272733"/></svg>