<svg fill="none" height="21" viewBox="0 0 245 21" width="245" xmlns="http://www.w3.org/2000/svg"><path d="m.689706 20.5v-19.880001h4.592004v15.848001h9.63199v4.032zm23.829094.168c-1.4747 0-2.8187-.2893-4.032-.868s-2.2493-1.3347-3.108-2.268c-.8587-.952-1.5307-2.0347-2.016-3.248-.4667-1.2133-.7-2.464-.7-3.752 0-1.30667.2427-2.56667.728-3.78.504-1.21333 1.1947-2.27733 2.072-3.192.896-.93333 1.9507-1.67067 3.164-2.212 1.2133-.560001 2.5387-.840001 3.976-.840001 1.4747 0 2.8187.289333 4.032.868001 1.2133.57867 2.2493 1.344 3.108 2.296s1.5213 2.03467 1.988 3.248.7 2.44533.7 3.696c0 1.3067-.252 2.5667-.756 3.78-.4853 1.2133-1.1667 2.2867-2.044 3.22-.8773.9147-1.9227 1.652-3.136 2.212s-2.5387.84-3.976.84zm-5.18-10.08c0 .7653.112 1.512.336 2.24.224.7093.5507 1.344.98 1.904.448.56.9987 1.008 1.652 1.344s1.4.504 2.24.504c.8773 0 1.6427-.1773 2.296-.532s1.1947-.812 1.624-1.372c.4293-.5787.7467-1.2227.952-1.932.224-.728.336-1.4653.336-2.212 0-.76533-.112-1.50267-.336-2.212-.224-.728-.56-1.36267-1.008-1.904-.448-.56-.9987-.99867-1.652-1.316-.6347-.336-1.372-.504-2.212-.504-.8773 0-1.6427.17733-2.296.532-.6347.336-1.176.784-1.624 1.344-.4293.56-.756 1.204-.98 1.932-.2053.70933-.308 1.43733-.308 2.184zm17.7454 9.912v-19.880001h8.96c.9334 0 1.792.196 2.576.588001.8027.392 1.4934.90533 2.072 1.54.5787.63467 1.0267 1.35333 1.344 2.156.336.80267.504 1.61467.504 2.436 0 .616-.0746 1.21333-.224 1.792-.1493.56-.364 1.092-.644 1.596s-.6253.9613-1.036 1.372c-.392.392-.84.728-1.344 1.008l4.368 7.392h-5.18l-3.808-6.412h-2.996v6.412zm4.592-10.416h4.2c.5414 0 1.008-.252 1.4-.756.392-.52267.588-1.18533.588-1.988 0-.82133-.224-1.47467-.672-1.96s-.9333-.728-1.456-.728h-4.06zm28.1379 6.384v4.032h-13.9721v-19.880001h13.7201v4.032001h-9.1281v3.864h7.84v3.724h-7.84v4.228zm18.4697 4.032v-11.9l-4.312 8.652h-2.464l-4.312-8.652v11.9h-4.592v-19.880001h4.984l5.152 10.388001 5.18-10.388001h4.956v19.880001zm8.4098 0v-19.880001h4.5924v19.880001zm8.3944 0v-19.880001h8.484c.952 0 1.82.196 2.604.588001.803.392 1.484.90533 2.044 1.54.579.63467 1.027 1.35333 1.344 2.156.336.80267.504 1.61467.504 2.436 0 .87733-.159 1.71733-.476 2.52-.299.8027-.728 1.5213-1.288 2.156-.541.6347-1.204 1.1387-1.988 1.512s-1.652.56-2.604.56h-4.032v6.412zm4.592-10.416h3.752c.541 0 1.008-.23333 1.4-.7s.588-1.148.588-2.044c0-.46667-.065-.868-.196-1.204-.112-.336-.271-.616-.476-.84s-.439-.38267-.7-.476c-.261-.112-.523-.168-.784-.168h-3.584zm24.781-3.64c-.056-.07467-.252-.21467-.588-.42s-.756-.42-1.26-.644-1.054-.42-1.652-.588c-.597-.168-1.194-.252-1.792-.252-1.642 0-2.464.55067-2.464 1.652 0 .336.084.616.252.84.187.224.448.42933.784.616.355.168.794.32667 1.316.476.523.14933 1.13.31733 1.82.504.952.26133 1.811.55067 2.576.868.766.29867 1.41.6813 1.932 1.148.542.448.952.9987 1.232 1.652.299.6533.448 1.4373.448 2.352 0 1.12-.214 2.072-.644 2.856-.41.7653-.961 1.3907-1.652 1.876-.69.4667-1.484.812-2.38 1.036-.896.2053-1.82.308-2.772.308-.728 0-1.474-.056-2.24-.168-.765-.112-1.512-.2707-2.24-.476-.728-.224-1.437-.4853-2.128-.784-.672-.2987-1.297-.644-1.876-1.036l2.016-4.004c.075.0933.318.2707.728.532.411.2613.915.5227 1.512.784.616.2613 1.298.4947 2.044.7.747.2053 1.503.308 2.268.308 1.624 0 2.436-.4947 2.436-1.484 0-.3733-.121-.6813-.364-.924-.242-.2427-.578-.4573-1.008-.644-.429-.2053-.942-.392-1.54-.56-.578-.168-1.213-.3547-1.904-.56-.914-.28-1.708-.5787-2.38-.896-.672-.336-1.232-.7187-1.68-1.148-.429-.42933-.756-.924-.98-1.484-.205-.56-.308-1.21333-.308-1.96 0-1.04533.196-1.96933.588-2.772s.924-1.47467 1.596-2.016c.672-.56 1.447-.98 2.324-1.260001.896-.28 1.839-.42 2.828-.42.691 0 1.372.065333 2.044.196s1.316.298667 1.932.504001c.616.20533 1.186.43867 1.708.7.542.26133 1.036.52267 1.484.784zm13.839 10.136c.784 0 1.447-.1587 1.988-.476.541-.336.98-.7747 1.316-1.316s.569-1.1573.7-1.848c.149-.7093.224-1.428.224-2.156v-10.164001h4.592v10.164001c0 1.3813-.177 2.6693-.532 3.864-.336 1.1947-.868 2.24-1.596 3.136-.709.896-1.624 1.6053-2.744 2.128-1.101.504-2.417.756-3.948.756-1.587 0-2.94-.2707-4.06-.812s-2.035-1.26-2.744-2.156c-.691-.9147-1.204-1.9693-1.54-3.164-.317-1.1947-.476-2.4453-.476-3.752v-10.164001h4.592v10.164001c0 .7653.075 1.4933.224 2.184s.392 1.3067.728 1.848.765.9707 1.288 1.288c.541.3173 1.204.476 1.988.476zm28.058 3.92v-11.9l-4.312 8.652h-2.464l-4.312-8.652v11.9h-4.592v-19.880001h4.984l5.152 10.388001 5.18-10.388001h4.956v19.880001zm8.018 0v-4.564h3.668v4.564z" fill="#fff"/><path d="m196.059 9.132v11.368h-4.592v-19.880001h3.584l9.268 11.676001v-11.676001h4.592v19.880001h-3.696zm30.626 7.336v4.032h-13.972v-19.880001h13.72v4.032001h-9.128v3.864h7.84v3.724h-7.84v4.228zm17.938-11.816h-6.048v15.848h-4.592v-15.848h-6.076v-4.032001h16.716z" fill="#42a9ed"/></svg>